# xmcd
#
# Track frame offsets: 
#        150
#        9686
#        19941
#        31569
#        51594
#        65018
#        80062
#
# Disc length: 1203 seconds
#
# Revision: 0
# Processed by: cddbd v1.5.2PL0 Copyright (c) Steve Scherf et al.
# Submitted via: ExactAudioCopy v0.99pb5
#
DISCID=5804b107
DTITLE=BB Wolf and the Howlers - The Lost Recordings
DYEAR=2010
DGENRE=Blues
TTITLE0=Rip It Up! [c. 1919]
TTITLE1=Rip It Up! [c. 2010]
TTITLE2=Freight Train [c. 1919]
TTITLE3=Freight Train [c. 2010]
TTITLE4=Sweet Baby Elle [c. 1919]
TTITLE5=Sweet Baby Elle [c 2010]
TTITLE6=Rip It Up! Bonus Track [c. 2010]
EXTD=
EXTT0=
EXTT1=
EXTT2=
EXTT3=
EXTT4=
EXTT5=
EXTT6=
PLAYORDER=
